<svg xmlns="http://www.w3.org/2000/svg" xmlns:xlink="http://www.w3.org/1999/xlink" width="200" height="350">
  <g transform="translate(100,100)">
  <path d="M 0 5 C 23 16, 23 19, 38 25 S 55 73, 5 51 C 73 44, 60 115, 54 128 S 15 155, -1 100 C 8 100, 50 135, 10 172 C 10 168, 14 200, -2 222 C 5 228, 14 230, 16 230 C 20 239, 13 235, -2 234 M 0 5 c 0 -1, 5 -1, 8 -5 c 5 -10, 1 -12, 6 -18 c -10 -5, 3 -24, -15 -27 c -10 0, -10 -2, -17 5 c -4 4, -12 10, -6 39 c -2 5, -2 9, 6 -5 c -5 15, 0 28, 0 15 s -45 25, -13 45 c 0 -2, -20 10, -23 22 c -20 28, 25 40, 16 32 c -20 5, -4 70, 9 45 c -15 15, -9 40, 7 68 c -5 7, -8 16, 20 13" stroke="black" fill="000"/>
  </g>
</svg>