<svg xmlns="http://www.w3.org/2000/svg" xmlns:xlink="http://www.w3.org/1999/xlink" width="200" height="350">
  <g transform="translate(100,100)">
  <path d="M 0 5 C 24 17, 28 22, 41 25 S 64 75, 9 47 C 70 50, 75 95, 70 125 S 25 155, 34 113 C 42 105, 48 170, 17 187 C 20 190, 10 210, 0 222 C 5 228, 14 230, 16 230 C 20 239, 13 237, -4 236 M 0 5 c 0 5, 11 -4, 8 -5 c 8 3, 1 -12, 6 -18 c -6 -5, 3 -24, -18 -27 c -10 0, -10 -2, -17 5 c -4 4, -12 10, -8 39 c -4 3, -2 9, 9 -5 c -8 15, 0 15, -2 15 s -35 25, -20 38 c -27 15, 15 25, -6 15 c -62 47, 40 66, 10 46 c -30 5, 0 50, 3 45 c -5 10, -19 30, 10 69 c -5 7, -8 16, 21 14" stroke="black" fill="000"/>
  </g>
</svg>