<svg xmlns="http://www.w3.org/2000/svg" xmlns:xlink="http://www.w3.org/1999/xlink" width="200" height="350">
  <g transform="translate(100,100)">
  <path d="M 0 5 C 8 20, 10 25, 14 29 S 24 51, 8 51  C 11 53, 7 64, 8 65 S 12 105, 7 105 C 7 100, 7 110, 2 167 C 4 158, -1 170, -2 222 C 5 228, 14 230, 16 230 C 20 239, 13 235, -2 234 M 0 5 c 1 -7, 2 -5, 8 -5 c 5 -10, 1 -12, 6 -18 c -10 -5, 3 -24, -15 -27 c -10 0, -10 -2, -17 5 c -4 4, -12 10, -6 39 c -2 5, -2 9, 6 -5 c 3 0, 4 10, 0 15 s -15 8, -10 38 c 10 30, 3 18, -6 35 c -6 16, 0 25, 5 26 c -2 15, 2 20, 8 45 c -8 15, -6 15, 0 68 c -5 7, -8 16, 19 13" stroke="black" fill="000"/>
  </g>
</svg>