<svg xmlns="http://www.w3.org/2000/svg" xmlns:xlink="http://www.w3.org/1999/xlink" width="800" height="450">
  <g transform="translate(200,50)">
  <path d="M -11 25 c -3 0, -4 15, 5 26 c 10 0, 20 5, 24 7 c 15 15, 12 50, 18 65 c 6 15, 8 15, 16 65 c 3 0, 1 9, 1 11 c 1 0, 6 18, -5 24 c 0 -5, -1 -10, -2 -17 c -2 0, -1 3, -5 7 c -1 -5, 3 -10, 0 -14 c 2 0, 1 -5, 2 -8 c 1 -5, -17 -30, -21 -60 c -3 0, -8 -10, -17 -40 c 0 15, 20 30, 3 42 c 0 0, 7 20, 5 35 c 20 5, 15 75, 8 45 c 12 0, 1 15, -13 65 c 0 10, 10 23, -10 65 c 1 0, 1 10, 8 19 c 0 5, -5 7, -20 5 c -3 0, -2 -5, 0 -25 c -5 -50, -1 -15, 1 -25 c -7 0, -8 -30, 0 -30 c 10 50, -27 -15, -2 -55 c 10 30, -18 50, -6 -15 c -6 0, -6 0, -6 0 c 0 -150, 0 -150, 0 -150" stroke="black" fill="000"/>
    <path d="M -11 25 c -3 0, -4 15, 5 26 c 10 0, 20 5, 24 7 c 15 15, 12 50, 18 65 c 6 15, 8 15, 16 65 c 3 0, 1 9, 1 11 c 1 0, 6 18, -5 24 c 0 -5, -1 -10, -2 -17 c -2 0, -1 3, -5 7 c -1 -5, 3 -10, 0 -14 c 2 0, 1 -5, 2 -8 c 1 -5, -17 -30, -21 -60 c -3 0, -8 -10, -17 -40 c 0 15, 20 30, 3 42 c 0 0, 7 20, 5 35 c 20 5, 15 75, 8 45 c 12 0, 1 15, -13 65 c 0 10, 10 23, -10 65 c 1 0, 1 10, 8 19 c 0 5, -5 7, -20 5 c -3 0, -2 -5, 0 -25 c -5 -50, -1 -15, 1 -25 c -7 0, -8 -30, 0 -30 c 10 50, -27 -15, -2 -55 c 10 30, -18 50, -6 -15 c -6 0, -6 0, -6 0 c 0 -150, 0 -150, 0 -150" stroke="black" fill="000" transform="translate(-47, 0) scale(-1, 1)"/>
  </g>
</svg>