<svg xmlns="http://www.w3.org/2000/svg" xmlns:xlink="http://www.w3.org/1999/xlink" width="200" height="350">
  <g transform="translate(100,100)">
  <path d="M 0 5 C 12 20, 14 25, 22 30 S 29 60, 5 51 C 26 47, 25 70, 28 82 S 20 115, 7 105 C 12 100, 27 110, 3 167 C 5 158, 1 170, -2 222 C 5 228, 14 230, 16 230 C 20 239, 13 235, -2 234 M 0 5 c 7 -3, 3 -5, 8 -5 c 5 -10, 1 -12, 6 -18 c -10 -5, 3 -24, -15 -27 c -10 0, -10 -2, -17 5 c -4 4, -12 10, -6 39 c -2 5, -2 9, 6 -5 c -5 15, 0 28, 0 15 s -28 17, -11 45 c 3 5, 0 3, -9 22 c -8 16, 0 30, 5 32 c 1 15, -1 20, 11 45 c -10 15, -6 15, 0 68 c -5 7, -8 16, 20 13" stroke="black" fill="000"/>
  </g>
</svg>