<svg xmlns="http://www.w3.org/2000/svg" xmlns:xlink="http://www.w3.org/1999/xlink" width="200" height="350">
  <g transform="translate(100,100)">
  <path d="M 0 5 C 12 20, 14 25, 23 30 S 32 60, 5 51 C 36 47, 26 63, 32 82 S 20 115, 7 105 C 12 100, 35 110, 6 164 C 7 178, 3 175, -1 222 C 5 228, 14 230, 16 230 C 20 239, 13 235, -2 234 M 0 5 c 7 -3, 3 -5, 8 -5 c 5 -10, 1 -12, 6 -18 c -10 -5, 3 -24, -15 -27 c -10 0, -10 -2, -17 5 c -4 4, -12 10, -6 39 c -2 5, -2 9, 6 -5 c -5 15, 0 28, 0 15 s -30 17, -11 45 c 0 10, -2 0, -11 22 c -8 16, 0 30, 7 32 c 0 5, -3 25, 10 45 c -10 15, -6 15, 1 68 c -5 7, -8 16, 20 13" stroke="black" fill="000"/>
  </g>
</svg>