<svg xmlns="http://www.w3.org/2000/svg" xmlns:xlink="http://www.w3.org/1999/xlink" width="200" height="350">
  <g transform="translate(100,100)">
  <path d="M 0 5 C 13 20, 16 24, 25 28 S 34 63, 5 51 C 37 43, 29 64, 35 78 S 25 125, 7 105 C 12 100, 40 110, 8 170 C 9 168, 8 190, -1 222 C 5 228, 14 230, 16 230 C 20 239, 13 235, -2 234 M 0 5 c 7 -3, 3 -5, 8 -5 c 5 -10, 1 -12, 6 -18 c -10 -5, 3 -24, -15 -27 c -10 0, -10 -2, -17 5 c -4 4, -12 10, -6 39 c -2 5, -2 9, 6 -5 c -5 15, 0 28, 0 15 s -30 17, -11 45 c 0 10, -2 0, -11 22 c -8 16, 0 30, 7 32 c -3 5, -5 25, 8 45 c -10 15, -6 15, 3 68 c -5 7, -8 16, 20 13" stroke="black" fill="000"/>
  </g>
</svg>