<svg xmlns="http://www.w3.org/2000/svg" xmlns:xlink="http://www.w3.org/1999/xlink" width="200" height="350">
  <g transform="translate(100,100)">
  <path d="M 0 5 C 13 16, 16 22, 28 27 S 39 66, 5 51 C 48 40, 39 93, 40 100 S 28 132, 7 105 C 12 100, 45 110, 8 170 C 9 168, 8 190, -2 222 C 5 228, 14 230, 16 230 C 20 239, 13 235, -2 234 M 0 5 c 7 -3, 3 -5, 8 -5 c 5 -10, 1 -12, 6 -18 c -10 -5, 3 -24, -15 -27 c -10 0, -10 -2, -17 5 c -4 4, -12 10, -6 39 c -2 5, -2 9, 6 -5 c -5 15, 0 28, 0 15 s -35 20, -11 45 c -1 5, -13 6, -17 22 c -15 28, 19 35, 8 32 c -5 5, -8 25, 9 45 c -7 15, -5 30, 7 68 c -5 7, -8 16, 20 13" stroke="black" fill="000"/>
  </g>
</svg>