<svg xmlns="http://www.w3.org/2000/svg" xmlns:xlink="http://www.w3.org/1999/xlink" width="200" height="350">
  <g transform="translate(100,100)">
  <path d="M 0 5 C 17 18, 19 20, 32 26 S 48 70, 5 51 C 65 44, 51 112, 42 120 S 20 140, -1 80 C 8 100, 48 120, 9 170 C 11 168, 10 190, -2 222 C 5 228, 14 230, 16 230 C 20 239, 13 235, -2 234 M 0 5 c 7 -3, 3 -5, 8 -5 c 5 -10, 1 -12, 6 -18 c -10 -5, 3 -24, -15 -27 c -10 0, -10 -2, -17 5 c -4 4, -12 10, -6 39 c -2 5, -2 9, 6 -5 c -5 15, 0 28, 0 15 s -42 25, -11 45 c 5 0, -15 6, -19 22 c -20 28, 21 35, 10 32 c -8 5, -8 25, 9 45 c -9 15, -6 30, 7 68 c -5 7, -8 16, 20 13" stroke="black" fill="000"/>
  </g>
</svg>