<svg xmlns="http://www.w3.org/2000/svg" xmlns:xlink="http://www.w3.org/1999/xlink" width="200" height="350">
  <g transform="translate(100,100)">
  <path d="M 0 5 C 20 18, 22 21, 35 25 S 51 72, 5 51 C 73 44, 55 115, 47 120 S 25 145, -1 100 C 8 100, 52 125, 10 172 C 10 168, 12 195, -2 222 C 5 228, 14 230, 16 230 C 20 239, 13 235, -2 234 M 0 5 c 0 -1, 5 -1, 8 -5 c 5 -10, 1 -12, 6 -18 c -10 -5, 3 -24, -15 -27 c -10 0, -10 -2, -17 5 c -4 4, -12 10, -6 39 c -2 5, -2 9, 6 -5 c -5 15, 0 28, 0 15 s -42 25, -15 45 c 0 0, -17 10, -17 22 c -21 28, 25 40, 12 32 c -8 5, -10 25, 9 45 c -9 15, -8 40, 7 68 c -5 7, -8 16, 20 13" stroke="black" fill="000"/>
  </g>
</svg>