<svg xmlns="http://www.w3.org/2000/svg" xmlns:xlink="http://www.w3.org/1999/xlink" width="800" height="450">
  <g transform="translate(200,50)">
  <path d="M -11 25 c -3 0, -4 15, 5 26 c -20 -10, 20 -10, 41 7 c 26 30, 30 50, 27 65 c 15 15, 25 50, 21 65 c 3 0, 1 9, 1 11 c 1 0, 6 18, -5 24 c 0 -5, -1 -10, -2 -17 c -2 0, -1 3, -5 7 c -1 -5, 3 -10, 0 -14 c 2 0, 1 -5, 2 -8 c -3 -5, -30 -30, -33 -60 c -3 0, -12 -10, -17 -40 c 0 30, 20 33, 3 42 c 27 10, 35 65, 5 35 c 50 5, 30 95, 8 45 c 26 0, 26 15, -13 65 c 0 10, 20 23, -10 65 c 1 0, 1 10, 8 19 c 0 5, -5 7, -25 5 c -3 0, -2 -5, 0 -25 c -30 -75, 0 -15, 1 -25 c -7 0, -20 -20, 0 -30 c 5 50, -62 -15, -7 -50 c 10 30, -35 80, -17 20 c -6 0, -6 0, -6 0 c 0 -150, 0 -150, 0 -150" stroke="black" fill="000"/>
    <path d="M -11 25 c -3 0, -4 15, 5 26 c -20 -10, 20 -10, 41 7 c 26 30, 30 50, 27 65 c 15 15, 25 50, 21 65 c 3 0, 1 9, 1 11 c 1 0, 6 18, -5 24 c 0 -5, -1 -10, -2 -17 c -2 0, -1 3, -5 7 c -1 -5, 3 -10, 0 -14 c 2 0, 1 -5, 2 -8 c -3 -5, -30 -30, -33 -60 c -3 0, -12 -10, -17 -40 c 0 30, 20 33, 3 42 c 27 10, 35 65, 5 35 c 50 5, 30 95, 8 45 c 26 0, 26 15, -13 65 c 0 10, 20 23, -10 65 c 1 0, 1 10, 8 19 c 0 5, -5 7, -25 5 c -3 0, -2 -5, 0 -25 c -30 -75, 0 -15, 1 -25 c -7 0, -20 -20, 0 -30 c 5 50, -62 -15, -7 -50 c 10 30, -35 80, -17 20 c -6 0, -6 0, -6 0 c 0 -150, 0 -150, 0 -150" stroke="black" fill="000" transform="translate(-47, 0) scale(-1, 1)"/>
  </g>
</svg>